<svg xmlns="http://www.w3.org/2000/svg" viewBox="0 0 198.43 70.87"><defs><style>.cls-1{fill:none;}.cls-2{fill:#765536;}.cls-3{fill:#241a17;}</style></defs><g id="圖層_2" data-name="圖層 2"><g id="圖層_1-2" data-name="圖層 1"><rect id="Logo外框線" class="cls-1" width="198.43" height="70.87"/><path class="cls-2" d="M162.66,8.91a264.21,264.21,0,0,1-27.54,23.64,231.2,231.2,0,0,1-30.63,19.62C93.72,57.75,82.32,62.52,70.21,64.54a55.31,55.31,0,0,1-18.29.21A37.32,37.32,0,0,1,35.3,57.59a38.37,38.37,0,0,0,16.8,6,57,57,0,0,0,17.77-.9A101,101,0,0,0,87,57.51,157.37,157.37,0,0,0,103.35,50c5.32-2.77,10.51-5.81,15.61-9s10.1-6.54,15-10,9.78-7,14.55-10.74S158,12.8,162.66,8.91Z"/><path class="cls-2" d="M32.89,23.52a112.1,112.1,0,0,0,12,4.23c1,.33,2,.59,3.06.85s2,.56,3.07.78c2.07.44,4.12.92,6.21,1.24s4.18.62,6.26.93,4.2.48,6.3.59a124.19,124.19,0,0,0,12.65.35q6.33-.08,12.65-.7c4.21-.39,8.39-1,12.57-1.64s8.33-1.52,12.44-2.52,8.22-2.08,12.26-3.38a132,132,0,0,1-24.47,7.14,142.75,142.75,0,0,1-25.42,2.74,121.57,121.57,0,0,1-12.8-.44A102,102,0,0,1,57,31.85a100.89,100.89,0,0,1-12.35-3.33l-3-1.09-2.95-1.22C36.69,25.45,34.81,24.42,32.89,23.52Z"/><path class="cls-2" d="M35.53,15.69A41.49,41.49,0,0,0,27.34,24,16.84,16.84,0,0,0,24.74,29,7.71,7.71,0,0,0,25,34.37a10.26,10.26,0,0,0,3.59,4.08,24.28,24.28,0,0,0,5,2.63,62,62,0,0,0,11.16,3.06c3.8.69,7.75,1.31,11.56,2.34A52.63,52.63,0,0,1,62,48.3a19.31,19.31,0,0,1,5.29,3,6.66,6.66,0,0,1,1.94,2.54,4.35,4.35,0,0,1,0,3.25,11.35,11.35,0,0,1-4,4.54,36.46,36.46,0,0,1-5.11,3,46.79,46.79,0,0,1-5.42,2.29A48.58,48.58,0,0,0,64.69,61a11.1,11.1,0,0,0,3.54-4.28,3.32,3.32,0,0,0,0-2.48,5.47,5.47,0,0,0-1.69-2,18.91,18.91,0,0,0-5-2.58A49.16,49.16,0,0,0,55.94,48c-1.88-.46-3.79-.85-5.7-1.21s-3.83-.65-5.78-1A59.3,59.3,0,0,1,33,42.53a24.64,24.64,0,0,1-5.3-2.9,11.18,11.18,0,0,1-3.93-4.76,8.94,8.94,0,0,1-.05-6.16,17.72,17.72,0,0,1,2.95-5.23,34.66,34.66,0,0,1,4.14-4.25A38.63,38.63,0,0,1,35.53,15.69Z"/><path class="cls-2" d="M82.67,31.43a6.94,6.94,0,0,1,.15-3.23,9.46,9.46,0,0,1,1.4-3,15.07,15.07,0,0,1,5-4.37,24.7,24.7,0,0,1,3-1.47c1-.37,2-.8,3.09-1.1a61.45,61.45,0,0,1,6.33-1.55c4.25-.82,8.53-1.32,12.74-2a31.66,31.66,0,0,0,6.15-1.45A5.57,5.57,0,0,0,123,11.62a3.47,3.47,0,0,0,.4-3,3.44,3.44,0,0,1,0,3.21A6.08,6.08,0,0,1,120.78,14a28.09,28.09,0,0,1-6.24,2c-4.24.92-8.49,1.48-12.67,2.32-2.09.39-4.17.85-6.2,1.42-1,.26-2,.64-3,1l-1.45.6a14.11,14.11,0,0,0-1.42.66,15.32,15.32,0,0,0-4.93,3.73A8.48,8.48,0,0,0,82.67,31.43Z"/><path class="cls-2" d="M105.52,21.56a46.7,46.7,0,0,1,4.41-3.37,19.54,19.54,0,0,1,2.46-1.36,6.15,6.15,0,0,1,2.85-.63,4.54,4.54,0,0,1,.79.19,1.63,1.63,0,0,1,.71.56,3.7,3.7,0,0,1,.57,1.44,3.37,3.37,0,0,0,.41,1.12,1,1,0,0,0,.82.37,4.77,4.77,0,0,0,2.36-.74l2.48-1.22,9.92-4.85c3.27-1.66,6.51-3.46,9.89-5a56.23,56.23,0,0,1,10.59-3.67,38.8,38.8,0,0,1,5.57-.84A37.49,37.49,0,0,1,165,3.4a21.42,21.42,0,0,1,5.59,1,8.92,8.92,0,0,1,2.61,1.28,4.32,4.32,0,0,1,1.74,2.45,5.07,5.07,0,0,1-.29,2.92,11.61,11.61,0,0,1-1.34,2.48,27.11,27.11,0,0,1-3.69,4.16,31.83,31.83,0,0,0,3.32-4.39A11.28,11.28,0,0,0,174,10.81a4.43,4.43,0,0,0,.09-2.52c-.47-1.6-2.21-2.48-3.88-2.94a20.6,20.6,0,0,0-5.32-.69,44.85,44.85,0,0,0-10.78,1.22,55.64,55.64,0,0,0-10.26,3.64c-3.33,1.52-6.55,3.3-9.88,4.93s-6.71,3.11-10.09,4.61l-2.53,1.12a5.69,5.69,0,0,1-2.91.73,2,2,0,0,1-1.56-.84,4.39,4.39,0,0,1-.5-1.48,3.12,3.12,0,0,0-.37-1.13.74.74,0,0,0-.35-.3,3.46,3.46,0,0,0-.54-.16,5.31,5.31,0,0,0-2.53.41,18.27,18.27,0,0,0-2.46,1.15C108.56,19.46,107.05,20.52,105.52,21.56Z"/><path class="cls-3" d="M74,55.28c0-.71-.29-1.06-.62-1.06h-.54v-.41h6.42L80,56.39h-.29c-.56-1.62-1.1-2.17-2.09-2.17H75.21c-.52,0-.59.67-.59,1.06V58.4h2c1,0,1.08-.4,1.08-1.63H78v3.68h-.3c0-1.38-.18-1.64-1.08-1.64h-2v3.6c0,.61.35.75.6.75h2.27c1.38,0,2.07-1.29,2.51-2.1h.3l-1,2.52H72.87v-.42h.6c.38,0,.56-.37.56-.75Z"/><path class="cls-3" d="M81.67,58.6c0-.39-.45-.38-.89-.36v-.42a2.88,2.88,0,0,0,1.49-.57v1.11l.38-.44a2.16,2.16,0,0,1,1.67-.67c1.2,0,1.5,1,1.5,1.8v3.61a.44.44,0,0,0,.44.5h.47v.42H84.34v-.42h.42a.45.45,0,0,0,.46-.5V59.05c0-.68-.33-1.39-1.17-1.39a2,2,0,0,0-1.78,1.46V62.7c0,.34.16.46.36.46h.46v.42H80.81v-.42h.35c.29,0,.51,0,.51-.46Z"/><path class="cls-3" d="M88.47,58.56c0-.32-.25-.35-.89-.38v-.41a2.93,2.93,0,0,0,1.49-.52v5a3.58,3.58,0,0,1-.51,2.2,1.5,1.5,0,0,1-1.22.55.81.81,0,0,1-.88-.71c0-.26.14-.46.38-.46a.72.72,0,0,1,.58.3.68.68,0,0,0,.47.27c.52,0,.58-.28.58-1.28Zm.84-4.27a.58.58,0,0,1-.56.61c-.3,0-.5-.25-.5-.61a.52.52,0,0,1,.5-.59A.55.55,0,0,1,89.31,54.29Z"/><path class="cls-3" d="M93.86,63.86c-2,0-2.67-1.9-2.67-3.33,0-2.57,1.61-3.48,2.67-3.48,1.34,0,2.6,1.13,2.6,3.48C96.46,62,95.72,63.86,93.86,63.86Zm1.4-5.65a1.71,1.71,0,0,0-1.4-.73,1.82,1.82,0,0,0-1.46.74,3.78,3.78,0,0,0-.55,2.31c0,1,.32,2.9,2,2.9s1.93-1.78,1.93-2.9A4,4,0,0,0,95.26,58.21Z"/><path class="cls-3" d="M98.07,58.29c-.21-.53-.39-.53-.92-.53v-.42h2.22v.42h-.52c-.15,0-.23.06-.23.18a.67.67,0,0,0,.08.28l1.65,4.17,1.72-4.14a.69.69,0,0,0,.06-.25c0-.16-.11-.24-.31-.24h-.53v-.42h2.3v.42h-.44a.73.73,0,0,0-.74.48l-2.13,5.21c-.44,1.11-1,1.57-1.61,1.57-.37,0-.83-.2-.83-.66s.29-.45.36-.45a.79.79,0,0,1,.44.19.57.57,0,0,0,.34.16,1,1,0,0,0,.89-.71l.17-.4Z"/><path class="cls-3" d="M112.21,62.11c-.69,1.2-1.35,1.74-2.3,1.74-1.6,0-2.65-1.42-2.65-3.44,0-2.19,1.44-3.31,2.84-3.31A1.88,1.88,0,0,1,112,58.91a.37.37,0,0,1-.39.39.38.38,0,0,1-.38-.41s0-.33,0-.4a1.14,1.14,0,0,0-1.17-1,2.43,2.43,0,0,0-2.17,2.67c0,2.76,1.57,3.17,2.13,3.17.75,0,1.25-.5,1.85-1.49Z"/><path class="cls-3" d="M115.79,63.86c-2,0-2.67-1.9-2.67-3.33,0-2.57,1.61-3.48,2.67-3.48,1.34,0,2.6,1.13,2.6,3.48C118.39,62,117.65,63.86,115.79,63.86Zm1.4-5.65a1.69,1.69,0,0,0-1.4-.73,1.82,1.82,0,0,0-1.46.74,3.85,3.85,0,0,0-.55,2.31c0,1,.32,2.9,2,2.9,1.54,0,1.93-1.78,1.93-2.9A4,4,0,0,0,117.19,58.21Z"/><path class="cls-3" d="M120,58.52c0-.36-.35-.38-.9-.38v-.41a3.2,3.2,0,0,0,1.5-.48v1c.43-.6.72-1,1.5-1a1.28,1.28,0,0,1,1.15.6,2.15,2.15,0,0,1,.21.52,1.89,1.89,0,0,1,1.69-1.12c.81,0,1.43.64,1.43,1.84v3.57c0,.32.15.5.43.5h.41v.42h-2.28v-.42h.46c.24,0,.38-.18.38-.5V59.09c0-.89-.39-1.43-1-1.43a1.65,1.65,0,0,0-1.43,1.27v3.74c0,.33.15.49.43.49h.4v.42h-2.32v-.42h.5a.44.44,0,0,0,.39-.49V59.16c0-.72-.23-1.5-1-1.5a1.55,1.55,0,0,0-1.34,1.39v3.63c0,.32.16.48.39.48h.45v.42H119.1v-.42h.35c.2,0,.54-.06.54-.48Z"/><path class="cls-3" d="M130,62.55c0,.41.14.61.52.61h.68v.42h-3v-.42h.67c.38,0,.53-.22.53-.61V57.7H127.9v-.41h1.54v-.58a4.62,4.62,0,0,1,.47-2.33,1.34,1.34,0,0,1,1.21-.67,1.59,1.59,0,0,1,1.71,1.49.39.39,0,0,1-.37.39.39.39,0,0,1-.37-.4V54.9a.84.84,0,0,0-1-.8c-.78,0-1.09.62-1.09,2v1.14h1.61v.41H130Z"/><path class="cls-3" d="M135,63.86c-2,0-2.67-1.9-2.67-3.33,0-2.57,1.61-3.48,2.67-3.48,1.34,0,2.6,1.13,2.6,3.48C137.56,62,136.82,63.86,135,63.86Zm1.4-5.65a1.71,1.71,0,0,0-1.4-.73,1.82,1.82,0,0,0-1.46.74,3.78,3.78,0,0,0-.55,2.31c0,1,.31,2.9,2,2.9,1.54,0,1.93-1.78,1.93-2.9A4,4,0,0,0,136.36,58.21Z"/><path class="cls-3" d="M139.19,58.52c0-.28-.17-.36-.94-.36v-.42a3.33,3.33,0,0,0,1.54-.49v1.31a2.48,2.48,0,0,1,1.86-1.31c.4,0,.91.09.91.76a.38.38,0,0,1-.4.4.53.53,0,0,1-.47-.27.54.54,0,0,0-.48-.24c-.53,0-1,.55-1.42,1.52v3.2c0,.42.1.54.44.54h.43v.42h-2.38v-.42c.68,0,.91,0,.91-.54Z"/><path class="cls-3" d="M144.42,61.93c0,.81.06,1.33.72,1.33.3,0,.7-.3,1.17-.9l.26.28c-.58.7-.89,1-1.6,1-.95,0-1.15-.92-1.15-1.74V57.8h-1.07v-.42c1.09,0,1.34-.83,1.34-2.84h.33v2.84h1.63v.42h-1.63Z"/></g></g></svg>